<svg style="fill:white;" class="header-button-label" id="Layer_1" enable-background="new 0 0 48 48" viewBox="0 0 48 48" xmlns="http://www.w3.org/2000/svg"><g><path d="m16 16c-.83 0-1.5.67-1.5 1.5v17c0 .83.67 1.5 1.5 1.5s1.5-.67 1.5-1.5v-17c0-.83-.67-1.5-1.5-1.5z"/><path d="m24 16c-.83 0-1.5.67-1.5 1.5v17c0 .83.67 1.5 1.5 1.5s1.5-.67 1.5-1.5v-17c0-.83-.67-1.5-1.5-1.5z"/><path d="m32 36c.83 0 1.5-.67 1.5-1.5v-17c0-.83-.67-1.5-1.5-1.5s-1.5.67-1.5 1.5v17c0 .83.67 1.5 1.5 1.5z"/><path d="m30 3h-12c-.83 0-1.5.67-1.5 1.5v2.5h-7.5-2c-.83 0-1.5.67-1.5 1.5s.67 1.5 1.5 1.5h.58l1.87 32.64c.07 1.32 1.17 2.36 2.5 2.36h24.1c1.33 0 2.42-1.04 2.5-2.35l1.86-32.65h.59c.83 0 1.5-.67 1.5-1.5s-.67-1.5-1.5-1.5h-2-7.5v-2.5c0-.83-.67-1.5-1.5-1.5zm-10.5 3h9v1h-9zm17.91 4-1.83 32h-23.16l-1.83-32h7.41 12z"/></g></svg>