<svg style="fill:white;" class="svg-icon" viewBox="0 0 480 480.05611" xmlns="http://www.w3.org/2000/svg"><path d="m32.027344 112h32v16h-32zm0 0"></path><path d="m128.027344 112h32v16h-32zm0 0"></path><path d="m32.027344 240h32v16h-32zm0 0"></path><path d="m128.027344 240h32v16h-32zm0 0"></path><path d="m128.027344 368h32v16h-32zm0 0"></path><path d="m32.027344 368h32v16h-32zm0 0"></path><path d="m456.027344 160h-65.597656c-6.402344 0-12.800782 2.398438-16.800782 7.199219l-78.402344 78.402343c-4.796874 4.796876-7.199218 10.398438-7.199218 16.796876v137.601562h-16v-400h-48v400h-16v-360c0-13.601562-10.398438-24-24-24h-160c-13.597656 0-24.0000002 10.398438-24.0000002 24v416h304.8007812c4 16.800781 21.601563 27.199219 38.398437 23.199219 11.203126-3.199219 20-12 23.203126-23.199219h18.398437c4 16.800781 21.601563 27.199219 38.398437 23.199219 11.203126-3.199219 20-12 23.203126-23.199219h9.597656c13.601562 0 24-10.398438 24-24v-248c0-13.601562-10.398438-24-24-24zm-149.597656 96.800781 78.398437-78.402343c1.601563-1.597657 3.199219-2.398438 5.601563-2.398438h65.597656c4.800781 0 8 3.199219 8 8v32h-8c-13.597656 0-24 10.398438-24 24v56c0 4.800781-3.199219 8-8 8h-8c-13.597656 0-24 10.398438-24 24v16h-84.800782l48.800782-48.800781 14.402344 14.402343 11.199218-11.203124-40-40-11.199218 11.203124 14.398437 14.398438-40.800781 40.800781v-62.402343c0-1.597657.800781-4 2.402344-5.597657zm157.597656-24.800781v112h-56v-16c0-4.800781 3.199218-8 8-8h8c13.601562 0 24-10.398438 24-24v-56c0-4.800781 3.199218-8 8-8zm-352 168v-112h16v40h48v-40h16v112zm-64-112h16v24h-16zm-32-16v-112h16v40h48v-40h16v112zm32-112h16v24h-16zm64 0h16v40h48v-40h16v112h-80zm32 0h16v24h-16zm0 128h16v24h-16zm48-248v104h-80v-112h16v40h48v-40h8c4.800781 0 8 3.199219 8 8zm-48-8h16v24h-16zm-96 0h16v24h-16zm-24 0h8v40h48v-40h16v112h-80v-104c0-4.800781 3.199218-8 8-8zm-8 256h16v40h48v-40h16v112h-80zm320 176c-8.800782 0-16-7.199219-16-16s7.199218-16 16-16c8.800781 0 16 7.199219 16 16s-7.199219 16-16 16zm80 0c-8.800782 0-16-7.199219-16-16s7.199218-16 16-16c8.800781 0 16 7.199219 16 16s-7.199219 16-16 16zm40-24h-8.800782c-4-16.800781-21.597656-27.199219-38.398437-23.199219-11.199219 3.199219-20 12-23.199219 23.199219h-18.402344c-4-16.800781-21.597656-27.199219-38.398437-23.199219-11.199219 3.199219-20 12-23.199219 23.199219h-289.601562v-24h224v-400h16v400h48v-56h160v72c0 4.800781-3.199219 8-8 8zm0 0"></path></svg>