<svg style="fill:white" viewBox="0 0 512 512" xmlns="http://www.w3.org/2000/svg"><path d="m221.867188 128c-4.714844 0-8.535157-3.820312-8.535157-8.535156 0-4.710938-3.820312-8.53125-8.53125-8.53125-4.714843 0-8.535156 3.820312-8.535156 8.53125 0 14.140625 11.460937 25.601562 25.601563 25.601562 13.988281-.355468 25.246093-11.609375 25.597656-25.601562 0-13.804688-12.59375-20.09375-21.785156-24.703125-7.226563-3.609375-12.347657-6.40625-12.347657-9.429688.289063-4.585937 3.945313-8.246093 8.535157-8.53125 4.710937 0 8.53125 3.820313 8.53125 8.53125 0 4.714844 3.820312 8.535157 8.535156 8.535157 4.710937 0 8.53125-3.820313 8.53125-8.535157 0-14.136719-11.460938-25.597656-25.597656-25.597656-13.988282.351563-25.246094 11.609375-25.601563 25.597656 0 13.808594 12.597656 20.097657 21.785156 24.707031 7.230469 3.609376 12.347657 6.40625 12.347657 9.425782-.285157 4.589844-3.945313 8.246094-8.53125 8.535156zm0 0"/><path d="m298.667969 76.800781c4.710937 0 8.53125-3.820312 8.53125-8.535156 0-4.710937-3.820313-8.53125-8.53125-8.53125h-17.066407c-9.425781 0-17.066406 7.640625-17.066406 17.066406v51.199219c0 9.425781 7.640625 17.066406 17.066406 17.066406h17.066407c4.710937 0 8.53125-3.820312 8.53125-8.53125 0-4.714844-3.820313-8.535156-8.53125-8.535156h-17.066407v-17.066406h17.066407c4.710937 0 8.53125-3.820313 8.53125-8.535156 0-4.710938-3.820313-8.53125-8.53125-8.53125h-17.066407v-17.066407zm0 0"/><path d="m384 115.199219v-25.597657c0-16.496093-13.371094-29.867187-29.867188-29.867187-16.496093 0-29.867187 13.371094-29.867187 29.867187v25.597657c0 16.496093 13.371094 29.867187 29.867187 29.867187 16.496094 0 29.867188-13.371094 29.867188-29.867187zm-17.066406 0c0 7.070312-5.730469 12.800781-12.800782 12.800781-7.070312 0-12.800781-5.730469-12.800781-12.800781v-25.597657c0-7.070312 5.730469-12.800781 12.800781-12.800781 7.070313 0 12.800782 5.730469 12.800782 12.800781zm0 0"/><path d="m495.351562 276.683594c-1.515624-4.042969-2.726562-8.191406-3.625-12.414063-1.484374-9.953125-5.71875-19.296875-12.222656-26.972656-7.679687-6.503906-17.027344-10.738281-26.980468-12.222656-4.21875-.898438-8.363282-2.109375-12.398438-3.625-3.742188-1.714844-7.34375-3.710938-10.777344-5.972657-8.222656-6.175781-18.03125-9.878906-28.28125-10.675781-10.25.792969-20.058594 4.496094-28.277344 10.664063-3.4375 2.265625-7.039062 4.261718-10.78125 5.976562-4.03125 1.515625-8.171874 2.722656-12.386718 3.617188-9.960938 1.488281-19.308594 5.722656-26.992188 12.226562-6.503906 7.675782-10.734375 17.015625-12.21875 26.964844-.898437 4.226562-2.109375 8.375-3.628906 12.417969-1.714844 3.738281-3.714844 7.34375-5.972656 10.785156-6.175782 8.21875-9.878906 18.03125-10.675782 28.28125.796876 10.246094 4.496094 20.058594 10.667969 28.277344 2.261719 3.433593 4.257813 7.035156 5.972657 10.769531 1.511718 4.042969 2.726562 8.195312 3.625 12.417969 1.484374 9.953125 5.71875 19.292969 12.222656 26.972656 4.007812 3.84375 8.816406 6.757813 14.078125 8.53125l-20.386719 73.457031c-1.894531 6.503906.136719 13.515625 5.214844 17.996094 4.828125 4.242188 11.664062 5.320312 17.5625 2.765625l17.6875-7.792969 11.53125 15.90625c3.113281 4.351563 8.132812 6.933594 13.480468 6.9375 1.007813-.003906 2.011719-.089844 3.003907-.261718 6.65625-1.230469 12.007812-6.1875 13.738281-12.734376l2.5625-9.128906 2.558594 9.128906c1.738281 6.546876 7.089844 11.503907 13.746094 12.734376.992187.171874 1.996093.257812 3.003906.261718 5.351562-.003906 10.367187-2.585937 13.484375-6.9375l11.152343-15.792968 18.066407 7.679687c5.894531 2.550781 12.734375 1.472656 17.558593-2.765625 5.082032-4.480469 7.113282-11.492188 5.214844-17.996094l-20.394531-73.515625c5.265625-1.773437 10.070313-4.6875 14.082031-8.53125 6.5-7.675781 10.734375-17.015625 12.21875-26.964843.894532-4.226563 2.105469-8.375 3.625-12.417969 1.71875-3.738281 3.714844-7.347657 5.972656-10.785157 6.144532-8.207031 9.828126-17.992187 10.617188-28.210937-.796875-10.25-4.496094-20.058594-10.667969-28.28125-2.261719-3.429687-4.261719-7.03125-5.980469-10.769531zm-113.230468 218.359375-11.527344-15.914063c-4.570312-6.339844-12.933594-8.652344-20.113281-5.5625l-17.722657 7.183594 20.378907-73.460938c.648437.160157 1.320312.324219 1.953125.492188l1.40625.394531c1.875.503907 3.714844 1.121094 5.511718 1.84375 3.742188 1.710938 7.34375 3.710938 10.78125 5.972657 2.933594 1.824218 6.023438 3.726562 9.289063 5.417968l10.140625 36.558594zm87.597656-13.761719-18.066406-7.679688c-7.183594-3.066406-15.535156-.75-20.113282 5.578126l-11.496093 15.292968-10.757813-38.792968-8.039062-29.011719c.769531 0 1.5-.09375 2.253906-.15625.5625-.042969 1.140625-.042969 1.707031-.109375.808594-.101563 1.585938-.28125 2.371094-.433594.503906-.09375 1.015625-.164062 1.511719-.285156.851562-.195313 1.644531-.46875 2.457031-.714844.417969-.136719.851563-.230469 1.253906-.375.929688-.316406 1.824219-.691406 2.722657-1.066406.28125-.113282.5625-.207032.851562-.324219 1.050781-.460937 2.074219-.964844 3.089844-1.476563l.332031-.152343c3.414063-1.707031 6.546875-3.695313 9.566406-5.574219 3.433594-2.261719 7.039063-4.257812 10.777344-5.972656 1.792969-.71875 3.625-1.332032 5.488281-1.835938.460938-.136718.9375-.265625 1.414063-.390625l1.972656-.503906 20.378906 73.460937zm17.117188-146.21875c-2.769532 4.207031-5.191407 8.628906-7.246094 13.226562-1.875 4.859376-3.363282 9.855469-4.453125 14.949219-.925781 6.847657-3.566407 13.351563-7.679688 18.902344-4.214843 3.40625-9.230469 5.683594-14.566406 6.613281l-4.269531 1.066406c-5.105469 1.089844-10.117188 2.582032-14.992188 4.460938-4.597656 2.058594-9.023437 4.480469-13.234375 7.246094-5.621093 4.339844-12.289062 7.125-19.328125 8.074218-1.40625-.03125-2.804687-.234374-4.164062-.609374-1.425782-.371094-2.824219-.859376-4.171875-1.457032h-.078125c-3.761719-1.777344-7.402344-3.800781-10.898438-6.058594-3.855468-2.460937-7.867187-4.667968-12.011718-6.605468-.402344-.179688-.777344-.417969-1.1875-.589844-1.1875-.484375-2.414063-.851562-3.625-1.226562-3.773438-1.28125-7.605469-2.332032-11.367188-3.234376l-4.265625-1.066406c-5.34375-.929687-10.359375-3.207031-14.578125-6.613281-4.113281-5.554687-6.753906-12.058594-7.679688-18.910156-1.089843-5.089844-2.578124-10.085938-4.453124-14.941407-2.054688-4.597656-4.476563-9.019531-7.238282-13.226562-4.367187-5.613281-7.179687-12.28125-8.148437-19.328125.964843-7.03125 3.757812-13.683594 8.097656-19.292969 2.769531-4.207031 5.191406-8.632812 7.246094-13.230468 1.875-4.855469 3.363281-9.851563 4.453125-14.941407.925781-6.847656 3.566406-13.355469 7.679687-18.910156 5.558594-4.117187 12.070313-6.761719 18.929688-7.679687 5.082031-1.082032 10.074219-2.566407 14.921875-4.4375 4.601562-2.054688 9.027344-4.476563 13.238281-7.242188 5.605469-4.359375 12.265625-7.164062 19.300781-8.132812 7.027344.964843 13.679688 3.761718 19.285156 8.105468 4.210938 2.765625 8.636719 5.1875 13.234376 7.246094 4.851562 1.867188 9.84375 3.351562 14.925781 4.4375 6.855469.917969 13.367187 3.5625 18.925781 7.679688 4.117188 5.554687 6.757812 12.058593 7.679688 18.910156 1.089843 5.089844 2.582031 10.085937 4.457031 14.941406 2.054687 4.59375 4.472656 9.019531 7.234375 13.226562 4.359375 5.613282 7.160156 12.277344 8.125 19.320313-.964844 7.027344-3.757813 13.683594-8.097656 19.292969zm0 0"/><path d="m401.066406 247.464844c-37.703125 0-68.265625 30.566406-68.265625 68.269531s30.5625 68.265625 68.265625 68.265625 68.265625-30.5625 68.265625-68.265625c-.042969-37.6875-30.582031-68.226563-68.265625-68.269531zm0 119.46875c-20.707031 0-39.378906-12.476563-47.300781-31.605469-7.925781-19.132813-3.546875-41.15625 11.097656-55.796875 14.644531-14.644531 36.664063-19.023438 55.796875-11.101562 19.132813 7.925781 31.605469 26.59375 31.605469 47.304687-.027344 28.265625-22.933594 51.171875-51.199219 51.199219zm0 0"/><path d="m419.839844 293.546875-19.695313 26.265625-10.113281-10.113281c-3.347656-3.234375-8.667969-3.1875-11.960938.105469-3.292968 3.292968-3.335937 8.613281-.101562 11.960937l17.066406 17.066406c1.597656 1.601563 3.769532 2.5 6.03125 2.5h.605469c2.472656-.179687 4.742187-1.425781 6.222656-3.410156l25.597657-34.136719c2.828124-3.769531 2.066406-9.117187-1.707032-11.945312-3.769531-2.828125-9.117187-2.0625-11.945312 1.707031zm0 0"/><path d="m8.535156 512h179.199219c23.550781-.027344 42.636719-19.113281 42.664063-42.667969v-76.796875h51.203124c4.710938 0 8.53125-3.824218 8.53125-8.535156s-3.820312-8.535156-8.53125-8.535156h-68.269531c-18.851562 0-34.132812-15.28125-34.132812-34.132813v-25.597656c0-4.714844-3.820313-8.535156-8.53125-8.535156-4.714844 0-8.535157 3.820312-8.535157 8.535156v25.597656c.027344 28.265625 22.933594 51.171875 51.199219 51.203125v76.796875c0 14.140625-11.460937 25.601563-25.597656 25.601563h-170.667969v-405.332032c0-40.0625 32.472656-72.535156 72.535156-72.535156 40.058594 0 72.53125 32.472656 72.53125 72.535156v89.597657c0 4.714843 3.820313 8.535156 8.535157 8.535156 4.710937 0 8.53125-3.820313 8.53125-8.535156v-89.597657c-.011719-3.402343-.21875-6.804687-.621094-10.183593-.121094-1.074219-.324219-2.113281-.488281-3.171875-.339844-2.269532-.734375-4.523438-1.246094-6.742188-.273438-1.175781-.578125-2.339844-.902344-3.5-.5625-2.082031-1.203125-4.121094-1.921875-6.132812-.390625-1.117188-.777343-2.226563-1.210937-3.320313-.851563-2.132812-1.808594-4.207031-2.816406-6.253906-.417969-.855469-.800782-1.75-1.253907-2.5625-1.5-2.847656-3.152343-5.613281-4.949219-8.285156-.1875-.273438-.410156-.527344-.605468-.800781-1.640625-2.355469-3.386719-4.632813-5.238282-6.828126-.683593-.851562-1.417968-1.5625-2.136718-2.347656-1.449219-1.601562-2.941406-3.164062-4.503906-4.648437-.851563-.855469-1.707032-1.605469-2.628907-2.390625-1.570312-1.382813-3.183593-2.695313-4.847656-3.96875-.570313-.433594-1.089844-.945313-1.707031-1.371094h224.8125c18.851562 0 34.132812 15.28125 34.132812 34.132812v127.972657c0 4.714843 3.820313 8.535156 8.535156 8.535156 4.710938 0 8.53125-3.820313 8.53125-8.535156v-128c-.027343-28.265625-22.933593-51.1718752-51.199218-51.199219h-277.332032c-49.460937.0546875-89.5468745 40.140625-89.601562 89.601562v413.863282c0 4.714844 3.820312 8.535156 8.535156 8.535156zm0 0"/><path d="m216.882812 290.132812-3.488281-3.515624c-.160156-16.464844-6.394531-32.289063-17.511719-44.433594l-61.578124-67.25-11.664063-12.730469c-4.847656-5.332031-11.6875-8.421875-18.890625-8.535156-7.222656-.222657-14.203125 2.605469-19.234375 7.792969-10.015625 10.085937-10.335937 26.261718-.726563 36.734374l12.628907 13.796876 59.734375 65.253906c11.652344 12.691406 27.789062 20.34375 44.988281 21.335937l6.125 6.167969c1.621094 1.585938 3.800781 2.464844 6.066406 2.449219h51.203125c4.710938 0 8.53125-3.820313 8.53125-8.53125 0-4.714844-3.820312-8.535157-8.53125-8.535157zm-120.261718-116.71875c1.070312-1.023437 2.363281-1.773437 3.78125-2.191406.964844-.335937 1.96875-.523437 2.988281-.554687 2.539063.046875 4.945313 1.140625 6.65625 3.019531l6.167969 6.75-13.25 13.363281-6.597656-7.203125c-3.441407-3.761718-3.328126-9.558594.253906-13.183594zm72.132812 92.261719-54.253906-59.273437 13.253906-13.359375 55.542969 60.660156c6.890625 7.523437 11.300781 16.980469 12.636719 27.09375-10.453125-1.972656-19.988282-7.277344-27.179688-15.121094zm0 0"/><path d="m290.132812 264.535156c0-4.714844-3.820312-8.535156-8.53125-8.535156h-42.667968c-4.714844 0-8.535156 3.820312-8.535156 8.535156 0 4.710938 3.820312 8.53125 8.535156 8.53125h42.667968c4.710938 0 8.53125-3.820312 8.53125-8.53125zm0 0"/><path d="m307.199219 230.398438c0-4.710938-3.820313-8.53125-8.53125-8.53125h-76.800781c-4.714844 0-8.535157 3.820312-8.535157 8.53125 0 4.714843 3.820313 8.535156 8.535157 8.535156h76.800781c4.710937 0 8.53125-3.820313 8.53125-8.535156zm0 0"/><path d="m366.933594 196.265625c0-4.710937-3.820313-8.53125-8.535156-8.53125h-153.597657c-4.714843 0-8.535156 3.820313-8.535156 8.53125 0 4.714844 3.820313 8.535156 8.535156 8.535156h153.597657c4.714843 0 8.535156-3.820312 8.535156-8.535156zm0 0"/></svg>