<svg style="fill:white;" class="svg-icon" id="Capa_1" enable-background="new 0 0 322.047 322.047" viewBox="0 0 322.047 322.047" xmlns="http://www.w3.org/2000/svg"><path d="m55.263 146.177c-11.833 0-21.459-10.808-21.459-24.093 0-5.871 1.929-11.526 5.43-15.922 3.863-5.15 9.742-8.174 16.029-8.174 2.762 0 5.341.563 7.661 1.675 1.863.894 3.048 2.775 3.048 4.841v30.965c-.005 1.344.063 2.665.126 3.923.11 2.16-1.09 4.175-3.04 5.111-2.32 1.11-4.944 1.674-7.795 1.674zm-.026-37.455c-2.87.008-5.606 1.468-7.511 4.007-2.06 2.587-3.187 5.952-3.187 9.354 0 7.354 4.796 13.34 10.698 13.358z"></path><path d="m178.366 146.177c-2.81 0-5.554-.605-7.933-1.748-2.126-1.022-3.334-3.31-2.983-5.64.165-1.09.207-2.178.207-3.321v-30.965c0-2.034 1.151-3.895 2.969-4.801 2.277-1.137 4.883-1.714 7.739-1.714 6.148 0 11.977 2.943 15.992 8.077 3.517 4.427 5.467 10.124 5.467 16.019.001 13.284-9.625 24.093-21.458 24.093zm.026-37.455v26.719c5.902-.018 10.698-6.004 10.698-13.358 0-3.478-1.122-6.806-3.161-9.372-2.015-2.576-4.683-3.981-7.537-3.989z"></path><path d="m43.427 114.873c-.446 0-.896-.055-1.342-.17-2.105-.545-3.674-2.304-3.973-4.455l-4.256-30.556c-.034-.246-.052-.493-.052-.742 0-22.403 8.159-41.498 22.384-52.385 10.782-8.258 21.147-9.791 26.13-10.528.301-.045.584-.084.839-.121 10.144-13.172 31.554-17.709 48.139-15.287 12.915 1.882 22.327 7.603 26.407 15.903 16.212 3.483 42.292 17.261 42.122 49.397 0 .168-.01.335-.026.503l-4.327 43.472c-.218 2.181-1.74 4.012-3.845 4.623-2.123.613-4.377-.123-5.724-1.848-1.997-2.553-4.673-3.957-7.538-3.957-1.179 0-2.17.197-2.943.582-1.662.839-3.643.739-5.221-.236-1.583-.978-2.545-2.705-2.545-4.565v-7.27c-2.259-.317-4.935-.681-7.92-1.088-38.204-5.189-62.488-9.346-72.925-14.855-3.648 2.867-5.991 4.935-7.918 6.631-4.248 3.745-6.746 5.808-12.929 8.36v8.222c0 1.845-.946 3.559-2.508 4.542-1.562.98-3.515 1.093-5.179.299-.86-.411-1.877-.621-3.022-.621-2.88 0-5.627 1.46-7.538 4.007-1.027 1.37-2.628 2.143-4.29 2.143zm1.111-36.29 2.93 21.032c2.432-1.061 5.058-1.625 7.763-1.628v-5.383c0-2.251 1.407-4.267 3.522-5.04 7.38-2.705 8.806-3.963 13.044-7.695 2.154-1.9 5.103-4.5 9.663-8.012.391-.312.734-.545.988-.836 1.02-1.164 2.49-1.835 4.039-1.835h.003c1.546 0 3.019.668 4.039 1.832 5.54 5.645 54.547 12.302 70.652 14.491 5.454.739 9.904 1.344 12.698 1.795 2.6.419 4.513 2.665 4.513 5.299v5.383c2.534.003 5.014.506 7.333 1.457l3.365-33.819c.008-33.219-34.569-38.812-36.044-39.035-2.039-.307-3.737-1.759-4.343-3.729-1.787-5.8-8.874-10.14-18.956-11.61-13.747-2.009-31.998 2.017-38.791 12.198-1.593 2.398-4.01 2.754-7.068 3.208-4.403.65-12.598 1.863-21.174 8.431-11.477 8.786-18.092 24.623-18.176 43.496zm37.494-61.102c-.003.005-.008.013-.013.021.005-.008.01-.016.013-.021z"></path><path d="m114.155 194.387c-14.674.087-25.683-5.637-30.43-8.484-4.068-2.44-7.852-5.394-11.228-8.772-9.954-9.957-16.029-23.113-17.106-37.045-.081-1.583-.149-3.093-.149-4.607v-42.864c0-2.254 1.407-4.267 3.522-5.04 7.37-2.699 8.796-3.955 13.026-7.682 2.157-1.903 5.111-4.505 9.684-8.025.414-.333.742-.556.988-.836 1.02-1.166 2.492-1.835 4.041-1.835s3.022.668 4.041 1.835c5.533 5.632 54.477 12.284 70.558 14.467 5.493.747 9.977 1.358 12.784 1.811 2.6.422 4.51 2.665 4.51 5.299v42.864c0 1.842-.102 3.402-.325 4.904-3.266 21.996-21.178 39.06-35.033 46.449-5.302 2.828-10.118 4.358-11.166 4.684-8.796 2.74-15.947 2.867-17.717 2.877zm-48.178-98.095v39.187c0 1.331.063 2.658.126 3.923.873 11.238 5.842 21.994 13.985 30.14 2.757 2.757 5.844 5.168 9.178 7.168 3.253 1.968 6.71 3.534 10.297 4.677 6.81 2.169 12.434 2.282 14.593 2.266 5.952-.042 10.382-1.236 12.866-1.923 1.367-.378 5.943-1.703 11.109-4.449 22.764-12.099 29.114-36.979 29.288-38.199.194-1.363.244-2.461.244-3.609v-38.235c-2.28-.322-4.987-.689-8.004-1.101-38.154-5.184-62.407-9.338-72.833-14.837-3.68 2.891-6.017 4.951-7.938 6.644-4.244 3.743-6.739 5.8-12.911 8.348z"></path><path d="m161.024 322.042h-155.657c-2.964 0-5.367-2.401-5.367-5.367v-66.501c0-37.42 55.276-48.918 79.042-52.126.068-.008.134-.016.202-.024 4.256-.647 6.759-.862 6.759-.862 2.891-.244 5.556 1.806 5.947 4.61.888 3.444 12.824 24.52 24.232 43.519l19.821 5.092 5.955-47.628c.178-1.436.93-2.739 2.086-3.614 1.153-.873 2.592-1.24 4.044-1.027 6.791 1.027 17.159 3.009 27.99 6.599 2.956 1.025 5.789 2.078 8.62 3.245l-4.089 9.928c-2.642-1.088-5.286-2.073-7.978-3.006-7.506-2.487-14.831-4.151-20.718-5.239l-6.015 48.124c-.191 1.531-1.03 2.904-2.306 3.774-1.276.86-2.867 1.127-4.353.76l-27.857-7.155c-1.365-.351-2.534-1.221-3.263-2.427-7.92-13.136-20.309-34.121-24.974-44.41-.739.102-1.583.223-2.513.367-.126.018-.252.034-.377.045-12.14 1.659-69.52 11.115-69.52 41.456v61.133h150.289z"></path><path d="m42.94 210.29h10.735v106.385h-10.735z"></path><path d="m86.469 262.465c-1.054 0-2.097-.309-2.988-.907-1.292-.87-2.146-2.254-2.338-3.795l-6.709-53.73 10.651-1.331 5.944 47.592 20.277-5.514 2.82 10.358-26.248 7.139c-.463.125-.937.188-1.409.188z"></path><path d="m112.738 255.284c-.01 0-.021 0-.031 0-1.869-.01-3.609-.975-4.573-2.579-9.684-16.034-26.046-43.784-26.824-49.445-.11-1.03-.186-1.887-.186-2.825v-19.129c0-1.937 1.043-3.724 2.731-4.676 1.69-.951 3.764-.917 5.415.084 10.757 6.522 18.773 6.654 24.877 6.932 10.248.466 21.241-5.056 21.853-5.386.103-.055.928-.512 2.117-.982.724-.286 1.085-.433 1.455-.504 1.29-.247 2.644-.014 3.8.69 1.601.975 2.576 2.71 2.576 4.584v18.388c0 .902-.071 1.717-.152 2.532-.026.28-.084.6-.162.915-.045.207-.1.411-.165.613-.068.207-.294.747-.734 1.554-.22.398-.537.98-.915 1.73-2.637 4.731-8.3 14.179-13.775 23.315-4.44 7.409-8.725 14.553-10.971 18.472-.527.86-.857 1.462-1.082 1.908-.375.76-.679 1.253-.679 1.253-.982 1.576-2.717 2.556-4.575 2.556zm-20.881-65.285v10.436c0 .545.055 1.04.107 1.536.778 2.93 10.449 20.144 20.665 37.347 2.264-3.829 5.2-8.727 8.206-13.741 5.433-9.068 11.052-18.445 13.5-22.825.286-.579.6-1.161.847-1.617.018-.225.029-.456.029-.7v-10.122c-2.561 1.007-5.817 2.08-9.671 2.871-1.568.322-6.009 1.167-11.395 1.197-9.385.053-17.296-2.394-22.288-4.382z"></path><path d="m140.579 262.46c-.446 0-.894-.058-1.334-.168l-27.846-7.15c-1.643-.425-2.988-1.593-3.632-3.161-.642-1.567-.508-3.349.364-4.801l.265-.501c.322-.653.807-1.541 1.457-2.597 2.181-3.808 6.505-11.023 10.989-18.5 5.433-9.068 11.052-18.445 13.5-22.825.341-.692.721-1.386.983-1.863l.013.003c.734-2.298 3.108-3.973 5.708-3.708.178.013 2.865.238 7.095.93 2.846.467 4.814 3.098 4.458 5.96l-6.694 53.68c-.191 1.531-1.03 2.904-2.304 3.769-.902.612-1.956.932-3.022.932zm-19.709-15.969 15.138 3.887 4.618-37.038c-2.904 4.956-6.785 11.432-10.578 17.759-3.446 5.753-6.801 11.346-9.178 15.392z"></path><path d="m107.357 249.943h10.735v66.732h-10.735z"></path><path d="m152.572 204.265-10.599-1.699 10.664 1.29z"></path><path d="m99.956 154.018-3.397-10.185 20.283-6.764c1.101-.367 2.296-.367 3.397 0l20.277 6.764-3.397 10.185-18.579-6.198z"></path><path d="m316.68 301.285c-.008 0-.016 0-.024 0l-155.656-.713c-2.956-.016-5.344-2.411-5.344-5.367v-82.299c0-2.964 2.403-5.367 5.367-5.367h155.657c2.964 0 5.367 2.403 5.367 5.367v83.012c0 1.426-.569 2.799-1.58 3.805-1.006 1.001-2.369 1.562-3.787 1.562zm-150.289-11.421 144.921.66v-72.251h-144.921z"></path><path d="m316.68 322.042h-155.656c-2.964 0-5.367-2.401-5.367-5.367v-21.47c0-1.426.569-2.799 1.58-3.805 1.012-1.006 2.461-1.546 3.811-1.562l155.656.713c2.956.016 5.344 2.411 5.344 5.367v20.757c-.001 2.966-2.404 5.367-5.368 5.367zm-150.289-10.735h144.921v-10.048l-144.921-.66z"></path><path d="m241.132 280.979c-8.657 0-15.699-7.045-15.699-15.699h10.735c0 2.736 2.228 4.964 4.964 4.964 2.739 0 4.966-2.228 4.966-4.964s-2.228-4.964-4.966-4.964c-8.657 0-15.699-7.045-15.699-15.701s7.042-15.699 15.699-15.699 15.701 7.042 15.701 15.699h-10.735c0-2.736-2.228-4.964-4.966-4.964-2.736 0-4.964 2.228-4.964 4.964 0 2.739 2.228 4.966 4.964 4.966 8.657 0 15.701 7.045 15.701 15.699s-7.044 15.699-15.701 15.699z"></path><path d="m235.765 225.428h10.735v8.856h-10.735z"></path><path d="m235.765 275.611h10.735v8.858h-10.735z"></path></svg>