<svg style="fill:white;" class="svg-icon" version="1.1" id="Layer_1" xmlns="http://www.w3.org/2000/svg" xmlns:xlink="http://www.w3.org/1999/xlink" viewBox="0 0 512 512" xml:space="preserve"><g><g><g><path  d="M456,144v-24h-16v24h-6.4l-9.6,46.4V464c-4,0-8-1.6-11.2-4.8c-3.2-3.2-4.8-7.2-4.8-11.2V344h-16 v104c0,8.8,3.2,16.8,9.6,22.4c6.4,5.6,13.6,9.6,22.4,9.6v8c0,6.4,2.4,12.8,7.2,16.8c4.8,4,10.4,7.2,16.8,7.2 c6.4,0,12.8-2.4,16.8-7.2c4-4.8,7.2-10.4,7.2-16.8v-16V192l-9.6-48H456z M446.4,160h3.2l4.8,24h-12.8L446.4,160z M456,488 c0,2.4-0.8,4-2.4,5.6c-3.2,3.2-8,3.2-11.2,0c-1.6-1.6-2.4-3.2-2.4-5.6v-8h16V488z M456,464h-16V359.2h16V464z M456,343.2h-16V232 h16V343.2z M456,216h-16v-16h16V216z"></path><path  d="M416,0H96C80.8,0,67.2,5.6,56.8,16.8C45.6,27.2,40,40.8,40,56v424h40v-16H56V56 c0-10.4,4-20.8,12-28c7.2-8,17.6-12,28-12h280.8c0,0,0,0-0.8,0.8c-10.4,10.4-16,24-16,39.2v408H160v16h216V56 c0-10.4,4-20.8,12-28c7.2-8,17.6-12,28-12c22.4,0,40,17.6,40,40v32h-64v16h80V56C472,24.8,447.2,0,416,0z"></path><rect x="80" y="56"  width="16" height="16"></rect><rect x="112" y="56"  width="16" height="16"></rect><rect x="144" y="56"  width="16" height="16"></rect><path  d="M80,232h48v-48H80V232z M96,200h16v16H96V200z"></path><path  d="M80,296h48v-48H80V296z M96,264h16v16H96V264z"></path><rect x="144" y="184"  width="112" height="16"></rect><rect x="272" y="184"  width="64" height="16"></rect><rect x="144" y="216"  width="80" height="16"></rect><rect x="144" y="248"  width="192" height="16"></rect><rect x="208" y="280"  width="112" height="16"></rect><rect x="144" y="280"  width="48" height="16"></rect><rect x="296" y="312"  width="40" height="16"></rect><rect x="224" y="312"  width="56" height="16"></rect><rect x="80" y="312"  width="128" height="16"></rect><rect x="80" y="344"  width="200" height="16"></rect><path  d="M80,168h256V88H80V168z M96,104h224v48H96V104z"></path><path  d="M257.6,411.2c-5.6,6.4-14.4,6.4-20,0C232,404,224.8,400,216,400s-16,4-22.4,11.2l12,10.4 c5.6-6.4,14.4-6.4,20,0C232,428,239.2,432,248,432s16-4,22.4-11.2c5.6-6.4,14.4-6.4,20,0C296,428,303.2,432,312,432 s16-4,22.4-11.2l-12-10.4c-5.6,6.4-14.4,6.4-20,0C296,404,288.8,400,280,400S264,404,257.6,411.2z"></path><path  d="M120,376c-22.4,0-40,17.6-40,40c0,12.8,6.4,24.8,16,32v60.8l24-12l24,12V448 c9.6-7.2,16-19.2,16-32C160,393.6,142.4,376,120,376z M128,483.2l-8-4l-8,4v-28c2.4,0.8,5.6,0.8,8,0.8s5.6,0,8-0.8V483.2z M120,440c-13.6,0-24-10.4-24-24c0-13.6,10.4-24,24-24c13.6,0,24,10.4,24,24C144,429.6,133.6,440,120,440z"></path><rect x="112" y="408"  width="16" height="16"></rect></g></g></g></svg>