<svg style="fill:white;" class="svg-icon" id="svg8" viewBox="0 0 16.933333 16.933333" xmlns="http://www.w3.org/2000/svg" xmlns:svg="http://www.w3.org/2000/svg"><g id="layer2"><path id="path2030" d="m4.3144971 4.1289522c0 .30788.0348.6160061.1033502.9162219l.0186.0832c-.0781.1637721-.12402.3528311-.12402.5457042 0 .6936409.54152 1.2166697 1.1508298 1.2123158.1307901.378652.32782.7262301.57825 1.0257781-.83439.3824-1.5107499 1.0538508-1.9140799 1.8768878-1.72278.575845-2.8744601 2.001226-3.0318401 3.670073l-.30074994 3.185322c-.0143.155292.10812.289209.26405994.288872h14.8160489c.15575.000032.27783-.133785.26355-.288872l-.30075-3.185322c-.15737-1.66874-1.31414-3.09708-3.03236-3.670061-.40737-.8331877-1.07891-1.4949617-1.91304-1.8774047.17746-.2098831.42402-.5661361.57593-1.024731.65003 0 1.15263-.556264 1.15263-1.212846 0-.1926802-.0456-.3805042-.12351-.5441529l.0181-.0832c.0688-.3006971.10387-.609373.10387-.9177732 0-2.2784229-1.85917-4.12895884-4.152694-4.12895884-2.293525-.000001-4.1521749 1.85053494-4.1521749 4.12894684zm7.7751789 0c0 .1691392-.0117.333161-.0354.500493-.12147-.07552-.26036-.1295749-.40591-.1533898v-.2887091c.000555-.1469282-.11869-.2661769-.26562-.2656171h-.52916c-.732719 0-1.3277488-.6028078-1.3358289-1.3632239-.00201-.149242-.12631-.267598-.27543-.261483-.12622.0055-.2309701.09939-.25011.224276-.12104.807755-.7944401 1.4004309-1.58594 1.4004309h-1.8572401c-.1463198.0002911-.2646198.1192962-.2640697.2656171v.288354c-.1452602.023839-.2849102.07761-.4061701.152963-.0239-.1672949-.0351-.3304211-.0351-.4997111 0-1.9907289 1.6289301-3.59978085 3.62299-3.59978085 1.9940598 0 3.6229888 1.60905195 3.6229888 3.59978085zm-.97048.3224602v1.359091c0 .04223-.004.08333-.006.1250569h-.47645-1.1539298l-.9317199-.3105762c-.025199-.0084-.0515-.012901-.078-.013441-.0305-.0007408-.0609.0038-.0899.013441l-.9317199.3105762h-1.6347699c-.00201-.04173-.00201-.08282-.00201-.1250569v-1.359091h1.5916201c.84314 0 1.4820299-.490438 1.7998799-1.0128581.2606601.51206.8420895 1.0128581 1.6474385 1.0128581zm-5.8342287.5684408v.7906502c0 .1813517.014301.3569038.0424.5301998-.2818601-.06594-.4857602-.3527319-.4857602-.6666259.0000101-.313895.19128-.57238.44338-.6542241zm6.3633987.00101c.25313.07771.44338.3474098.44338.6531898s-.19393.5960231-.48679.6666261c.0281-.173296.0434-.348848.0434-.5302001zm-3.181699 1.1332633.8888301.2971389c.027.0089.0553.013491.0837.013441h1.6018689c-.28814 1.187485-1.329739 2.0587889-2.5744088 2.0587889-1.2446701 0-2.2889501-.8702709-2.5729501-2.058789h1.60041c.0286.0001061.0571-.0044.0842-.013441zm-1.8515499 2.295467v1.0759029h-1.0604c-.2465099.012131-.4799999.038-.71209.08062.3851701-.575099.94493-1.035769 1.60041-1.2908793.0543.045528.1148699.092518.17208.1343564zm5.4766289 1.1580805c-.23138-.04238-.46691-.07007-.71262-.08217-.35235-.0000188-.70757 0-1.060899 0v-1.0769355c.057-.04169.11745-.08849.171559-.1338419.65486.2551298 1.21453.7146549 1.60196 1.2929444zm-4.946949-.8459479c.4027501.1878322.8492001.2909382 1.32187.2909382.4727202 0 .9196101-.104104 1.3223901-.2919722v.7648112h-2.6442601zm-.89917 1.2929439-.5286399 1.05885c-.0611.122945-.018.272179.0992.343649l1.0335299.621151-.5549997.552421c-.0656.06534-.0922.160189-.0703.250114l.8469699 3.523286h-5.7215801l.2713001-2.896464c.12302-1.304439.95679-2.464481 2.2473899-3.048392-.10684.369525-.16433.760416-.16433 1.16582v.01654h-.2237499c-.28303 0-.51403.115465-.67954.287837-.16552.172371-.26406.392328-.31265.621151l-.4904 2.304766c-.0623.293404.0643.562274.26768.74414.1949.174263.45181.275436.7244999.275436h.2444301c.35379-.0079.35535-.521279 0-.529167h-.2444301c-.1336999 0-.2821199-.05968-.3725899-.14056-.0751-.06713-.12021-.153571-.1018-.240295l.49041-2.302702c.0321-.151305.0962-.282576.1757-.365352.0795-.08278.17814-.127124.29869-.127124h.9766699c.11909 0 .2192099.04435.29869.127124.0795.08278.1435801.214047.1757.365352l.4904099 2.302702c.018399.08672-.022299.169192-.1018098.240295-.0905.08089-.2388801.14056-.3725801.14056h-.2444301c-.3537997.0079-.3537997.521314 0 .529167h.2444301c.2726901 0 .5296-.101173.7245-.275436.2064099-.184557.3299701-.450736.26768-.74414l-.4904099-2.304769c-.0486-.228823-.14712-.44878-.3126402-.621151-.1655098-.172372-.3975399-.287837-.6795399-.287837h-.2237499v-.01654c0-.49772.1000799-.972063.27741-1.399737.3355399-.09328.6907599-.15208 1.0692598-.170704zm.5922102 0h.0326l1.3306599 1.551327v4.798144h-.5844599l-.8433501-3.50365.6898701-.689363c.12207-.121813.0969-.325975-.0512-.414445l-1.1131-.665593zm.7306998 0h1.7967801l-.8986501 1.04902zm2.4944 0h.0331l.538989 1.07642-1.1136189.665593c-.1478698.08866-.17282.292789-.0507.414445l.6872899.689363-.8407599 3.50365h-.58704v-4.795026zm.625289 0h.66507c.37768.01859.73375.08019 1.06866.173117.15126.364619.24689.760129.2713 1.177705-.60742.125448-1.05058.659769-1.05058 1.293462 0 .727492.5887 1.324466 1.32239 1.324466.73369.000001 1.32188-.596973 1.32188-1.324466 0-.640136-.45727-1.176735-1.0635-1.296562-.017-.326117-.0721-.642867-.15916-.944129 1.28172.58248 2.12367 1.731994 2.24791 3.049427l.27182 2.896451h-2.76984l-.11524-1.607124c-.009-.148655-.1374-.256662-.28577-.243913-.14554.01286-.25415.137122-.24132.28267l.11265 1.568367h-2.4220588l.8464588-3.523286c.0219-.08992-.005-.184773-.0703-.250114l-.554489-.552421 1.033009-.621151c.11739-.0713.16071-.220575.0997-.343649zm2.27684 1.851555c.43128 0 .79272.351205.79272.792716 0 .44151-.35844.795301-.79272.795301-.43427-.000001-.79529-.353792-.79529-.795301 0-.44151.36402-.792716.79529-.792716zm-.000503.529167c-.14613 0-.26458.118457-.26458.264583 0 .146125.11845.264583.26458.264583.14612 0 .26458-.118458.26458-.264583 0-.146126-.11846-.264583-.26458-.264583z" font-variant-ligatures="normal" font-variant-position="normal" font-variant-caps="normal" font-variant-numeric="normal" font-variant-alternates="normal" font-feature-settings="normal" text-indent="0" text-align="start" text-decoration-line="none" text-decoration-style="solid" text-decoration-color="rgb(0,0,0)" text-transform="none" text-orientation="mixed" white-space="normal" shape-padding="0" isolation="auto" mix-blend-mode="normal" solid-color="rgb(0,0,0)" solid-opacity="1" vector-effect="none" paint-order="stroke fill markers"></path></g></svg>