<svg style="fill:#008000;" version="1.1" id="Capa_1" xmlns="http://www.w3.org/2000/svg" xmlns:xlink="http://www.w3.org/1999/xlink" viewBox="0 0 490.677 490.677" xml:space="preserve"><g><g><path d="M260.421,245.341L487.557,18.227c4.16-4.16,4.16-10.923,0-15.083c-4.16-4.16-10.923-4.16-15.083,0L245.339,230.259 L18.224,3.123c-4.16-4.16-10.923-4.16-15.083,0c-4.16,4.16-4.16,10.923,0,15.083l227.115,227.136L3.12,472.456 c-4.16,4.181-4.16,10.923,0,15.104c2.091,2.069,4.821,3.115,7.552,3.115c2.731,0,5.461-1.045,7.552-3.115l227.115-227.136 l227.115,227.115c2.091,2.091,4.821,3.136,7.552,3.136c2.731,0,5.461-1.045,7.552-3.115c4.16-4.16,4.16-10.923,0-15.083 L260.421,245.341z"/></g></g></svg>