<svg style="fill:white;" id="_x33_0" viewBox="0 0 62 62" xmlns="http://www.w3.org/2000/svg"><g><path d="m44 22c0 1.103.897 2 2 2h2c1.103 0 2-.897 2-2 1.103 0 2-.897 2-2v-2c0-1.103-.897-2-2-2 0-1.103-.897-2-2-2h-2c-1.103 0-2 .897-2 2-1.103 0-2 .897-2 2v2c0 1.103.897 2 2 2zm0-4h2v-2h2v2l2 .003v1.997h-2v2h-2v-2h-2z"/><path d="m47 28c4.962 0 9-4.038 9-9s-4.038-9-9-9-9 4.038-9 9 4.038 9 9 9zm0-16c3.86 0 7 3.14 7 7s-3.14 7-7 7-7-3.14-7-7 3.14-7 7-7z"/><path d="m62 6v-6h-62v6h2v50h-2v6h62v-6h-2v-50zm-60-4h58v2h-58zm56 42h-8.101c-.152-.743-.482-1.416-.924-2h9.025zm-10 1c0 1.654-1.346 3-3 3s-3-1.346-3-3 1.346-3 3-3 3 1.346 3 3zm-7.899-1h-18.202c-.152-.743-.482-1.416-.924-2h20.051c-.443.584-.773 1.257-.925 2zm-20.101 1c0 1.654-1.346 3-3 3s-3-1.346-3-3 1.346-3 3-3 3 1.346 3 3zm-7.899-1h-8.101v-2h9.026c-.443.584-.773 1.257-.925 2zm-4.101-5v-12c0-.551.449-1 1-1h8c.551 0 1 .449 1 1v12c0 .551-.449 1-1 1h-8c-.551 0-1-.449-1-1zm22-7h-6v-6h6zm-10.184 8c.112-.314.184-.648.184-1v-5h2v6zm.184-8v-5c0-.352-.072-.686-.184-1h2.184v6zm10-8h-6v-6h6zm0-8h-6v-6h6zm-8 0h-6v-6h6zm-6 2h6v6h-4v-2c0-1.103-.897-2-2-2zm0 4v2h-6v-2zm8 18v-6h6v6zm6-34v2h-14c-1.103 0-2 .897-2 2v10h-4c-1.103 0-2 .897-2 2v2.184c-1.161.414-2 1.514-2 2.816v12c0 .352.072.686.184 1h-2.184v-34zm-26 40h8.101c.465 2.279 2.484 4 4.899 4s4.434-1.721 4.899-4h8.101v10h-26zm56 14h-58v-2h58zm-28-4v-10h8.101c.465 2.279 2.484 4 4.899 4s4.434-1.721 4.899-4h8.101v10zm26-16h-26v-34h26z"/><path d="m34 18h2v10h-2z"/><path d="m14 30h-2v2h-2v2h2v2h2v-2h2v-2h-2z"/><circle cx="27" cy="37" r="1"/><circle cx="27" cy="29" r="1"/><circle cx="27" cy="21" r="1"/><circle cx="27" cy="13" r="1"/><circle cx="19" cy="13" r="1"/></g>
</svg>