<svg style="fill:white;" class="svg-icon" version="1.1" id="Capa_1" xmlns="http://www.w3.org/2000/svg" xmlns:xlink="http://www.w3.org/1999/xlink" viewBox="0 0 496 496" xml:space="preserve"><g><g><g><path d="M488,448h-40v-80h24c4.418,0,8-3.582,8-8V136c0-4.418-3.582-8-8-8h-24V88c0-4.418-3.582-8-8-8h-16V0h-16v80h-16 c-4.418,0-8,3.582-8,8v40h-24c-4.418,0-8,3.582-8,8v224c0,4.418,3.582,8,8,8h24v80h-40c-4.418,0-8,3.582-8,8v32 c0,4.418,3.582,8,8,8h144c4.418,0,8-3.582,8-8v-32C496,451.582,492.418,448,488,448z M400,96h32v32h-32V96z M368,272h16v-16h-16 v-16h32v-16h-32v-16h16v-16h-16v-16h32v-16h-32v-16h96v144h-96V272z M368,304h96v16h-96V304z M368,352v-16h96v16H368z M432,368 v80h-32v-80H432z M480,480H352v-16h128V480z"></path><path d="M240,0H80C35.817,0,0,35.817,0,80s35.817,80,80,80h160c44.183,0,80-35.817,80-80S284.183,0,240,0z M152,144H80 c-35.33-0.04-63.96-28.67-64-64c0.04-35.33,28.67-63.96,64-64h72V144z M240,144h-72V16h72c35.346,0,64,28.654,64,64 C304,115.346,275.346,144,240,144z"></path><path d="M160,240.64V224h8c4.418,0,8-3.582,8-8v-32c0-4.418-3.582-8-8-8H40c-4.418,0-8,3.582-8,8v32c0,4.418,3.582,8,8,8h8v16.64 C20.483,244.633,0.053,268.195,0,296v176c0,13.255,10.745,24,24,24h160c13.255,0,24-10.745,24-24V296 C207.947,268.195,187.517,244.633,160,240.64z M48,192h112v16H48V192z M144,224v16H64v-16H144z M192,472c0,4.418-3.582,8-8,8H24 c-4.418,0-8-3.582-8-8V296c0.026-22.08,17.92-39.974,40-40h96c22.08,0.026,39.974,17.92,40,40V472z"></path><path d="M168,320H40c-4.418,0-8,3.582-8,8v80c0,4.418,3.582,8,8,8h128c4.418,0,8-3.582,8-8v-80C176,323.582,172.418,320,168,320z M160,400H48v-64h112V400z"></path><path d="M312,208h-80c-4.418,0-8,3.582-8,8v32c0,4.418,3.582,8,8,8h8v17.472c-9.555,3.378-15.958,12.394-16,22.528v176 c0,13.255,10.745,24,24,24h48c13.255,0,24-10.745,24-24V296c-0.042-10.134-6.445-19.15-16-22.528V256h8c4.418,0,8-3.582,8-8v-32 C320,211.582,316.418,208,312,208z M304,472c0,4.418-3.582,8-8,8h-48c-4.418,0-8-3.582-8-8v-8h64V472z M304,448h-64V320h64V448z M304,304h-64v-8c0-4.418,3.582-8,8-8h48c4.418,0,8,3.582,8,8V304z M256,272v-16h32v16H256z M304,240h-64v-16h64V240z"></path><path d="M232,32v16c22.08,0.026,39.974,17.92,40,40h16C287.965,57.087,262.913,32.035,232,32z"></path></g></g></g></svg>