<svg style="fill:white;" class="svg-icon" viewBox="0 0 512 512" xmlns="http://www.w3.org/2000/svg"><path d="m512 245.351562c-.003906-2-.792969-3.984374-2.320312-5.472656l-89.472657-89.472656c-1.0625-1.097656-2.441406-1.878906-3.996093-2.1875-1.113282-.21875-.125-.148438-21.289063-.148438v-73.082031c0-4.222656-3.429687-7.65625-7.65625-7.65625-4.234375 0-7.65625 3.433594-7.65625 7.65625v73.082031h-60.289063v-132.757812h60.289063v29.050781c0 4.226563 3.421875 7.65625 7.65625 7.65625 4.226563 0 7.65625-3.429687 7.65625-7.65625v-30.777343c0-7.492188-6.09375-13.585938-13.597656-13.585938-139.90625 0-228.242188 0-367.738281 0h-.621094c-7.15625 0-12.964844 5.808594-12.964844 12.964844v.621094 324.261718c0 7.515625 6.105469 13.617188 13.609375 13.617188h215.378906v45.5c0 4.234375 3.429688 7.65625 7.65625 7.65625 4.226563 0 7.65625-3.421875 7.65625-7.65625 0-8.253906 0-220.175782 0-229.726563 0-2.113281 1.710938-3.855469 3.859375-3.855469h158.890625v73.363282c0 8.972656 7.300781 16.273437 16.269531 16.273437h73.367188v239.0625c0 2.132813-1.726562 3.859375-3.859375 3.859375h-244.667969c-2.132812 0-3.859375-1.726562-3.859375-3.859375v-64.496093c0-4.222657-3.429687-7.652344-7.65625-7.652344-4.226562 0-7.65625 3.429687-7.65625 7.652344v64.496093c0 10.578125 8.597657 19.171875 19.171875 19.171875h244.667969c10.578125 0 19.171875-8.59375 19.171875-19.171875v-246.71875c0-.003906 0-.007812 0-.011719zm-391.71875-230.039062h78.753906v83.132812l-32.382812-25.332031c-4.097656-3.203125-9.875-3.21875-13.984375 0l-32.386719 25.332031zm108.707031 174.449219c-.800781-.097657 7.136719-.0625-137.722656-.0625-4.230469 0-7.65625 3.425781-7.65625 7.65625 0 4.226562 3.425781 7.65625 7.65625 7.65625 144.859375 0 136.921875.035156 137.722656-.066407v18.5c-.800781-.097656 7.136719-.0625-137.722656-.0625-4.230469 0-7.65625 3.429688-7.65625 7.65625 0 4.230469 3.425781 7.65625 7.65625 7.65625 144.859375 0 136.921875.035157 137.722656-.0625v24.050782h-160.695312v-96.976563h160.757812c-.085937 1.0625-.0625-.503906-.0625 24.054688zm75.019531-41.691407h-55.847656c-3.316406 0-6.429687.835938-9.148437 2.328126h-172.585938c-7.414062 0-13.445312 6.03125-13.445312 13.441406v100.714844c0 7.410156 6.03125 13.445312 13.445312 13.445312h162.5625v58.15625c-12.566406 0-211.296875 0-213.675781 0 0-1.328125 0-312.257812 0-320.84375h89.65625v91.269531c0 9.425781 10.90625 14.753907 18.339844 8.9375l36.351562-28.4375c0 .003907 36.351563 28.4375 36.351563 28.441407 7.429687 5.800781 18.335937.496093 18.335937-8.941407v-91.269531h89.660156zm119.316407 89.636719c-.53125 0-.960938-.429687-.960938-.957031v-62.535156l63.492188 63.492187zm0 0"></path><path d="m270.242188 206.460938h108.886718c4.226563 0 7.65625-3.425782 7.65625-7.65625 0-4.226563-3.429687-7.65625-7.65625-7.65625h-108.886718c-4.230469 0-7.65625 3.429687-7.65625 7.65625 0 4.230468 3.425781 7.65625 7.65625 7.65625zm0 0"></path><path d="m270.242188 250.082031h108.886718c4.226563 0 7.65625-3.429687 7.65625-7.65625 0-4.230469-3.429687-7.65625-7.65625-7.65625h-108.886718c-4.230469 0-7.65625 3.425781-7.65625 7.65625 0 4.226563 3.425781 7.65625 7.65625 7.65625zm0 0"></path><path d="m270.242188 293.699219h201.355468c4.226563 0 7.65625-3.425781 7.65625-7.65625 0-4.226563-3.429687-7.65625-7.65625-7.65625h-201.355468c-4.230469 0-7.65625 3.429687-7.65625 7.65625 0 4.230469 3.425781 7.65625 7.65625 7.65625zm0 0"></path><path d="m471.597656 322.007812h-21.695312c-4.226563 0-7.65625 3.425782-7.65625 7.652344 0 4.230469 3.429687 7.65625 7.65625 7.65625h21.695312c4.226563 0 7.65625-3.425781 7.65625-7.65625 0-4.226562-3.429687-7.652344-7.65625-7.652344zm0 0"></path><path d="m270.242188 337.316406h149.039062c4.226562 0 7.652344-3.425781 7.652344-7.65625 0-4.226562-3.425782-7.652344-7.652344-7.652344h-149.039062c-4.230469 0-7.65625 3.425782-7.65625 7.652344 0 4.230469 3.425781 7.65625 7.65625 7.65625zm0 0"></path><path d="m471.597656 365.625h-107.441406c-4.230469 0-7.65625 3.425781-7.65625 7.65625 0 4.226562 3.425781 7.65625 7.65625 7.65625h107.441406c4.226563 0 7.65625-3.429688 7.65625-7.65625 0-4.230469-3.429687-7.65625-7.65625-7.65625zm0 0"></path><path d="m471.597656 409.242188h-107.441406c-4.230469 0-7.65625 3.429687-7.65625 7.65625 0 4.230468 3.425781 7.65625 7.65625 7.65625h107.441406c4.226563 0 7.65625-3.425782 7.65625-7.65625 0-4.226563-3.429687-7.65625-7.65625-7.65625zm0 0"></path><path d="m471.597656 452.859375h-107.441406c-4.230469 0-7.65625 3.429687-7.65625 7.65625 0 4.230469 3.425781 7.65625 7.65625 7.65625h107.441406c4.226563 0 7.65625-3.425781 7.65625-7.65625 0-4.226563-3.429687-7.65625-7.65625-7.65625zm0 0"></path><path d="m312.777344 468.847656c4.230468 0 7.65625-3.425781 7.65625-7.65625v-9.132812c10.980468-2.894532 17.304687-11.464844 17.304687-24.148438 0-30.832031-35.542969-22.953125-35.542969-38.140625 0-5.761719 4.085938-8.683593 12.140626-8.683593 5.589843 0 8.644531 1.574218 10.871093 2.722656 1.441407.742187 2.683594 1.382812 4.148438 1.382812 5.785156 0 14.5-13.929687-8.921875-16.816406v-10.9375c0-4.226562-3.425782-7.652344-7.65625-7.652344-4.230469 0-7.65625 3.425782-7.65625 7.652344v11.601562c-10.855469 2.65625-17.105469 10.308594-17.105469 21.59375 0 27.898438 35.546875 19.238282 35.546875 38.140626 0 8.960937-6.78125 10.84375-12.46875 10.84375-12.210938 0-13.191406-8.75-18.472656-8.75-3.628906 0-6.550782 4.113281-6.550782 7.519531 0 5.769531 7.941407 12.328125 19.050782 14.222656v8.582031c0 4.230469 3.425781 7.65625 7.65625 7.65625zm0 0"></path></svg>