<svg style="fill:white;" class="svg-icon" id="Capa_1" enable-background="new 0 0 512 512" viewBox="0 0 512 512" xmlns="http://www.w3.org/2000/svg"><g><g><path d="m167.245 195.476v-13.921c0-4.142-3.357-7.5-7.5-7.5s-7.5 3.358-7.5 7.5v13.921c0 4.142 3.357 7.5 7.5 7.5s7.5-3.358 7.5-7.5z"></path><path d="m230 202.976c4.143 0 7.5-3.358 7.5-7.5v-13.921c0-4.142-3.357-7.5-7.5-7.5s-7.5 3.358-7.5 7.5v13.921c0 4.142 3.357 7.5 7.5 7.5z"></path><path d="m226.187 250.314c2.93-2.929 2.93-7.678.001-10.607-2.929-2.928-7.678-2.929-10.606 0-11.42 11.419-29.998 11.418-41.416 0-2.93-2.929-7.678-2.929-10.607 0s-2.929 7.678 0 10.606c8.635 8.634 19.973 12.95 31.314 12.95 11.338 0 22.682-4.317 31.314-12.949z"></path><path d="m191.158 225.267h11.15c4.143 0 7.5-3.358 7.5-7.5s-3.357-7.5-7.5-7.5h-3.65v-12.314c0-4.142-3.357-7.5-7.5-7.5s-7.5 3.358-7.5 7.5v19.814c0 4.142 3.358 7.5 7.5 7.5z"></path><path d="m470.421 364.5c4.143 0 7.5-3.358 7.5-7.5v-59.64c0-6.893-5.607-12.5-12.5-12.5h-33.921v-.86c0-6.893-5.607-12.5-12.5-12.5h-6.442c-.905-15.591-13.873-28-29.687-28s-28.781 12.409-29.686 28h-6.443c-6.893 0-12.5 5.607-12.5 12.5v.86h-33.921c-6.893 0-12.5 5.607-12.5 12.5v10.815h-25.662l-20.422-20.192c17.826-7.207 31.752-22.096 37.652-40.544h4.855c18.924 0 34.319-15.396 34.319-34.319v-9.989c0-10.109-4.396-19.209-11.374-25.496v-20.188c10.509-1.211 18.699-10.152 18.699-20.98 0-10.835-8.202-19.782-18.721-20.983-.819-48.432-34.688-88.953-79.979-99.947-1.048-2.476-2.491-4.796-4.301-6.861-4.834-5.513-11.813-8.676-19.147-8.676h-17.735c-7.334 0-14.313 3.163-19.147 8.678-1.81 2.065-3.253 4.385-4.301 6.861-45.291 10.994-79.161 51.515-79.98 99.947-10.519 1.201-18.721 10.147-18.721 20.983 0 10.828 8.191 19.769 18.7 20.98v20.188c-6.978 6.286-11.374 15.387-11.374 25.496v9.989c0 18.924 15.396 34.319 34.319 34.319h4.855c5.899 18.448 19.826 33.337 37.651 40.543l-20.422 20.192h-57.247c-19.993 0-36.259 16.266-36.259 36.259v155.065c0 6.893 5.607 12.5 12.5 12.5h186.421c4.143 0 7.5-3.358 7.5-7.5s-3.357-7.5-7.5-7.5h-30.628v-143.971l.428-.436 47.573 30.778c1.732 1.121 3.715 1.686 5.704 1.686 1.722 0 3.448-.424 5.018-1.278 3.382-1.84 5.482-5.374 5.482-9.224v-51.379h21.244v173.824h-19.821c-4.143 0-7.5 3.358-7.5 7.5s3.357 7.5 7.5 7.5h197.421c6.893 0 12.5-5.607 12.5-12.5v-107.5c0-4.142-3.357-7.5-7.5-7.5s-7.5 3.358-7.5 7.5v105h-160.1v-197.14h11.213v175.427c0 5.79 4.71 10.5 10.5 10.5h116.674c5.79 0 10.5-4.71 10.5-10.5v-175.427h11.213v57.14c0 4.142 3.357 7.5 7.5 7.5zm-166.858-151.379c0 10.653-8.667 19.319-19.319 19.319h-1.969c.115-1.574.193-3.158.193-4.761v-43.867h1.775c10.652 0 19.319 8.667 19.319 19.32v9.989zm-21.094-44.309v-11.213h9.721v12.151c-2.552-.607-5.21-.939-7.945-.939h-1.776zm-104.332-150.246c2.016-2.299 4.811-3.566 7.868-3.566h17.735c3.058 0 5.853 1.267 7.868 3.566s2.905 5.235 2.505 8.267l-7.671 58.098h-23.14l-7.671-58.098c-.4-3.032.49-5.968 2.506-8.267zm-72.636 213.874c-10.652 0-19.319-8.667-19.319-19.319v-9.989c0-10.653 8.667-19.32 19.319-19.32h1.775v43.867c0 1.603.078 3.187.193 4.761zm-7.945-62.689v-12.151h9.721v11.213h-1.775c-2.736-.001-5.394.33-7.946.938zm-12.57-27.152c-3.381 0-6.131-2.75-6.131-6.131s2.75-6.131 6.131-6.131h56.014c4.143 0 7.5-3.358 7.5-7.5s-3.357-7.5-7.5-7.5h-43.401c.846-39.519 27.36-72.826 63.516-83.861l8.177 61.936c.492 3.73 3.673 6.518 7.436 6.518h36.29c3.763 0 6.943-2.788 7.436-6.518l8.177-61.936c36.155 11.036 62.669 44.342 63.515 83.861h-116.146c-4.143 0-7.5 3.358-7.5 7.5s3.357 7.5 7.5 7.5h128.758c3.381 0 6.131 2.75 6.131 6.131s-2.75 6.131-6.131 6.131zm37.29 85.08v-70.08h145.192v70.08c0 27.58-22.438 50.019-50.019 50.019h-45.155c-27.579 0-50.018-22.439-50.018-50.019zm15.892 91.128 15.497-15.323v7.9c0 4.748 1.833 9.226 5.161 12.609l17.382 17.679-38.04 24.611zm49.204 178.193h-138.293v-152.565c0-11.722 9.537-21.259 21.259-21.259h52.83v51.379c0 3.85 2.101 7.384 5.482 9.224s7.489 1.684 10.721-.408l47.573-30.778.428.435zm7.5-157.738-25.352-25.785c-.552-.561-.855-1.304-.855-2.092v-18.8c1.203.067 2.411.113 3.63.113h45.155c1.219 0 2.427-.046 3.63-.113v18.8c0 .788-.304 1.531-.855 2.092-.001 0-.001.001-.001.001zm56.705 27.023-38.041-24.611 17.383-17.68c3.328-3.384 5.161-7.862 5.161-12.609v-7.9l15.497 15.322zm131.294-107.785c7.539 0 13.764 5.691 14.63 13h-29.259c.866-7.309 7.091-13 14.629-13zm-33.629 28h67.258v18.703h-67.258zm87.466 184.287h-107.674v-170.927h5.208v7.843c0 6.893 5.607 12.5 12.5 12.5h72.258c6.893 0 12.5-5.607 12.5-12.5v-7.843h5.208z"></path><path d="m359.653 342.166-7.03 7.031-3.992-3.991c-2.928-2.93-7.677-2.929-10.606 0s-2.929 7.678.001 10.606l9.295 9.294c1.464 1.465 3.384 2.197 5.303 2.197s3.839-.732 5.304-2.197l12.334-12.334c2.929-2.929 2.929-7.678-.001-10.606-2.928-2.929-7.677-2.929-10.608 0z"></path><path d="m421.967 348.11h-38.795c-4.143 0-7.5 3.358-7.5 7.5s3.357 7.5 7.5 7.5h38.795c4.143 0 7.5-3.358 7.5-7.5s-3.358-7.5-7.5-7.5z"></path><path d="m421.967 376.42h-38.795c-4.143 0-7.5 3.358-7.5 7.5s3.357 7.5 7.5 7.5h38.795c4.143 0 7.5-3.358 7.5-7.5s-3.358-7.5-7.5-7.5z"></path><path d="m360.104 376.42h-16.776c-4.143 0-7.5 3.358-7.5 7.5s3.357 7.5 7.5 7.5h16.776c4.143 0 7.5-3.358 7.5-7.5s-3.357-7.5-7.5-7.5z"></path><path d="m360.104 404.73h-16.776c-4.143 0-7.5 3.358-7.5 7.5s3.357 7.5 7.5 7.5h16.776c4.143 0 7.5-3.358 7.5-7.5s-3.357-7.5-7.5-7.5z"></path><path d="m360.104 433.04h-16.776c-4.143 0-7.5 3.358-7.5 7.5s3.357 7.5 7.5 7.5h16.776c4.143 0 7.5-3.358 7.5-7.5s-3.357-7.5-7.5-7.5z"></path><path d="m421.967 404.73h-38.795c-4.143 0-7.5 3.358-7.5 7.5s3.357 7.5 7.5 7.5h38.795c4.143 0 7.5-3.358 7.5-7.5s-3.358-7.5-7.5-7.5z"></path><path d="m421.967 433.04h-38.795c-4.143 0-7.5 3.358-7.5 7.5s3.357 7.5 7.5 7.5h38.795c4.143 0 7.5-3.358 7.5-7.5s-3.358-7.5-7.5-7.5z"></path></g></g></svg>